{"asset":{"version":"2.0","generator":"babylon.js glTF exporter for 3ds max 2015 v1.2.24","copyright":"2017 (c) BabylonJS"},"extensionsUsed":["KHR_lights"],"scene":0,"scenes":[{"nodes":[0,1,2],"extensions":{"KHR_lights":{"light":0}}}],"nodes":[{"mesh":0,"translation":[3.65051937,2.683332,-4.839323],"rotation":[0.0,0.0,-0.7095589,0.70464617],"scale":[1.00000012,1.00000012,1.0],"name":"Plane022"},{"mesh":1,"translation":[-30.7291451,2.92437267,15.9052773],"rotation":[0.0,0.0,-0.7095589,0.70464617],"scale":[1.00000012,1.00000012,1.0],"name":"Object1111"},{"translation":[0.0,0.0,0.0],"rotation":[0.0,0.0,0.0,1.0],"scale":[1.0,1.0,1.0],"name":"Default light"}],"meshes":[{"primitives":[{"attributes":{"POSITION":1,"NORMAL":2,"TEXCOORD_0":3},"indices":0,"mode":4,"material":0}],"name":"Plane022"},{"primitives":[{"attributes":{"POSITION":5,"NORMAL":6,"TEXCOORD_0":7},"indices":4,"mode":4,"material":1}],"name":"Object1111"}],"accessors":[{"bufferView":0,"componentType":5123,"count":5904,"type":"SCALAR","name":"accessorIndices"},{"bufferView":1,"componentType":5126,"count":5904,"max":[2.247265,39.13734,27.7848053],"min":[-2.24726462,-39.1373329,-27.7848072],"type":"VEC3","name":"accessorPositions"},{"bufferView":1,"byteOffset":70848,"componentType":5126,"count":5904,"type":"VEC3","name":"accessorNormals"},{"bufferView":2,"componentType":5126,"count":5904,"type":"VEC2","name":"accessorUVs"},{"bufferView":0,"byteOffset":11808,"componentType":5123,"count":48912,"type":"SCALAR","name":"accessorIndices"},{"bufferView":1,"byteOffset":141696,"componentType":5126,"count":48912,"max":[2.990977,14.115797,17.6740837],"min":[-2.99097753,-14.115797,-17.6740818],"type":"VEC3","name":"accessorPositions"},{"bufferView":1,"byteOffset":728640,"componentType":5126,"count":48912,"type":"VEC3","name":"accessorNormals"},{"bufferView":2,"byteOffset":47232,"componentType":5126,"count":48912,"type":"VEC2","name":"accessorUVs"}],"bufferViews":[{"buffer":0,"byteLength":109632,"name":"bufferViewScalar"},{"buffer":0,"byteOffset":109632,"byteLength":1315584,"byteStride":12,"name":"bufferViewFloatVec3"},{"buffer":0,"byteOffset":1425216,"byteLength":438528,"byteStride":8,"name":"bufferViewFloatVec2"}],"buffers":[{"uri":"model.bin","byteLength":1863744}],"materials":[{"pbrMetallicRoughness":{"baseColorFactor":[0.6086602,0.6086602,0.6086602,1.0],"metallicFactor":0.0,"roughnessFactor":0.9},"emissiveFactor":[0.0,0.0,0.0],"alphaMode":"OPAQUE","name":"_axe_firewire_14"},{"pbrMetallicRoughness":{"baseColorFactor":[0.6086602,0.6086602,0.6086602,1.0],"metallicFactor":0.0,"roughnessFactor":0.9},"emissiveFactor":[0.0,0.0,0.0],"alphaMode":"OPAQUE","name":"_axe_firewire_00"}],"extensions":{"KHR_lights":{"lights":[{"color":[1.0,1.0,1.0],"intensity":1.0,"type":"ambient"}]}}}